<svg width="37" height="43" viewBox="0 0 37 43" fill="none" xmlns="http://www.w3.org/2000/svg">
<path fill-rule="evenodd" clip-rule="evenodd" d="M25.1071 9.40625C25.1071 7.62433 24.411 5.91539 23.172 4.65538C21.9329 3.39537 20.2523 2.6875 18.5 2.6875C16.7477 2.6875 15.0671 3.39537 13.828 4.65538C12.589 5.91539 11.8929 7.62433 11.8929 9.40625V10.75H25.1071V9.40625ZM27.75 9.40625V10.75H37V37.625C37 39.0505 36.4431 40.4177 35.4518 41.4257C34.4606 42.4337 33.1161 43 31.7143 43H5.28571C3.88386 43 2.53941 42.4337 1.54815 41.4257C0.556886 40.4177 0 39.0505 0 37.625V10.75H9.25V9.40625C9.25 6.91156 10.2246 4.51904 11.9593 2.75503C13.694 0.991013 16.0467 0 18.5 0C20.9533 0 23.306 0.991013 25.0407 2.75503C26.7754 4.51904 27.75 6.91156 27.75 9.40625ZM19.8214 21.5C19.8214 21.1436 19.6822 20.8018 19.4344 20.5498C19.1866 20.2978 18.8505 20.1562 18.5 20.1562C18.1495 20.1562 17.8134 20.2978 17.5656 20.5498C17.3178 20.8018 17.1786 21.1436 17.1786 21.5V25.5312H13.2143C12.8638 25.5312 12.5277 25.6728 12.2799 25.9248C12.0321 26.1768 11.8929 26.5186 11.8929 26.875C11.8929 27.2314 12.0321 27.5732 12.2799 27.8252C12.5277 28.0772 12.8638 28.2188 13.2143 28.2188H17.1786V32.25C17.1786 32.6064 17.3178 32.9482 17.5656 33.2002C17.8134 33.4522 18.1495 33.5938 18.5 33.5938C18.8505 33.5938 19.1866 33.4522 19.4344 33.2002C19.6822 32.9482 19.8214 32.6064 19.8214 32.25V28.2188H23.7857C24.1362 28.2188 24.4723 28.0772 24.7201 27.8252C24.9679 27.5732 25.1071 27.2314 25.1071 26.875C25.1071 26.5186 24.9679 26.1768 24.7201 25.9248C24.4723 25.6728 24.1362 25.5312 23.7857 25.5312H19.8214V21.5Z" fill="#269E9C"/>
</svg>
