<svg width="23" height="26" viewBox="0 0 23 26" fill="none" xmlns="http://www.w3.org/2000/svg">
<path d="M5.75 3.71325V6.79136H2.875V3.71325H5.75ZM7.1875 22.1819V19.1038C7.1875 18.6956 7.03605 18.3042 6.76647 18.0155C6.49688 17.7269 6.13125 17.5648 5.75 17.5648H2.875C2.49375 17.5648 2.12812 17.7269 1.85853 18.0155C1.58895 18.3042 1.4375 18.6956 1.4375 19.1038V22.1819C1.4375 22.5901 1.58895 22.9816 1.85853 23.2702C2.12812 23.5588 2.49375 23.721 2.875 23.721H5.75C6.13125 23.721 6.49688 23.5588 6.76647 23.2702C7.03605 22.9816 7.1875 22.5901 7.1875 22.1819ZM7.1875 14.4866V11.4085C7.1875 11.0004 7.03605 10.6089 6.76647 10.3203C6.49688 10.0316 6.13125 9.86948 5.75 9.86948H2.875C2.49375 9.86948 2.12812 10.0316 1.85853 10.3203C1.58895 10.6089 1.4375 11.0004 1.4375 11.4085V14.4866C1.4375 14.8948 1.58895 15.2863 1.85853 15.5749C2.12812 15.8636 2.49375 16.0257 2.875 16.0257H5.75C6.13125 16.0257 6.49688 15.8636 6.76647 15.5749C7.03605 15.2863 7.1875 14.8948 7.1875 14.4866ZM7.1875 6.79136V3.71325C7.1875 3.30507 7.03605 2.9136 6.76647 2.62497C6.49688 2.33634 6.13125 2.17419 5.75 2.17419H2.875C2.49375 2.17419 2.12812 2.33634 1.85853 2.62497C1.58895 2.9136 1.4375 3.30507 1.4375 3.71325V6.79136C1.4375 7.19955 1.58895 7.59101 1.85853 7.87964C2.12812 8.16827 2.49375 8.33042 2.875 8.33042H5.75C6.13125 8.33042 6.49688 8.16827 6.76647 7.87964C7.03605 7.59101 7.1875 7.19955 7.1875 6.79136ZM14.375 22.1819V19.1038C14.375 18.6956 14.2235 18.3042 13.954 18.0155C13.6844 17.7269 13.3187 17.5648 12.9375 17.5648H10.0625C9.68125 17.5648 9.31562 17.7269 9.04603 18.0155C8.77645 18.3042 8.625 18.6956 8.625 19.1038V22.1819C8.625 22.5901 8.77645 22.9816 9.04603 23.2702C9.31562 23.5588 9.68125 23.721 10.0625 23.721H12.9375C13.3187 23.721 13.6844 23.5588 13.954 23.2702C14.2235 22.9816 14.375 22.5901 14.375 22.1819ZM14.375 14.4866V11.4085C14.375 11.0004 14.2235 10.6089 13.954 10.3203C13.6844 10.0316 13.3187 9.86948 12.9375 9.86948H10.0625C9.68125 9.86948 9.31562 10.0316 9.04603 10.3203C8.77645 10.6089 8.625 11.0004 8.625 11.4085V14.4866C8.625 14.8948 8.77645 15.2863 9.04603 15.5749C9.31562 15.8636 9.68125 16.0257 10.0625 16.0257H12.9375C13.3187 16.0257 13.6844 15.8636 13.954 15.5749C14.2235 15.2863 14.375 14.8948 14.375 14.4866ZM14.375 6.79136V3.71325C14.375 3.30507 14.2235 2.9136 13.954 2.62497C13.6844 2.33634 13.3187 2.17419 12.9375 2.17419H10.0625C9.68125 2.17419 9.31562 2.33634 9.04603 2.62497C8.77645 2.9136 8.625 3.30507 8.625 3.71325V6.79136C8.625 7.19955 8.77645 7.59101 9.04603 7.87964C9.31562 8.16827 9.68125 8.33042 10.0625 8.33042H12.9375C13.3187 8.33042 13.6844 8.16827 13.954 7.87964C14.2235 7.59101 14.375 7.19955 14.375 6.79136ZM12.9375 3.71325V6.79136H10.0625V3.71325H12.9375ZM20.125 3.71325V6.79136H17.25V3.71325H20.125ZM5.75 11.4085V14.4866H2.875V11.4085H5.75ZM12.9375 11.4085V14.4866H10.0625V11.4085H12.9375ZM20.125 11.4085H17.25V14.4866H20.125V11.4085ZM5.75 19.1038V22.1819H2.875V19.1038H5.75ZM12.9375 19.1038V22.1819H10.0625V19.1038H12.9375ZM20.125 19.1038V22.1819H17.25V19.1038H20.125ZM17.25 2.17419C16.8688 2.17419 16.5031 2.33634 16.2335 2.62497C15.964 2.9136 15.8125 3.30507 15.8125 3.71325V6.79136C15.8125 7.19955 15.964 7.59101 16.2335 7.87964C16.5031 8.16827 16.8688 8.33042 17.25 8.33042H20.125C20.5062 8.33042 20.8719 8.16827 21.1415 7.87964C21.411 7.59101 21.5625 7.19955 21.5625 6.79136V3.71325C21.5625 3.30507 21.411 2.9136 21.1415 2.62497C20.8719 2.33634 20.5062 2.17419 20.125 2.17419H17.25ZM15.8125 11.4085C15.8125 11.0004 15.964 10.6089 16.2335 10.3203C16.5031 10.0316 16.8688 9.86948 17.25 9.86948H20.125C20.5062 9.86948 20.8719 10.0316 21.1415 10.3203C21.411 10.6089 21.5625 11.0004 21.5625 11.4085V14.4866C21.5625 14.8948 21.411 15.2863 21.1415 15.5749C20.8719 15.8636 20.5062 16.0257 20.125 16.0257H17.25C16.8688 16.0257 16.5031 15.8636 16.2335 15.5749C15.964 15.2863 15.8125 14.8948 15.8125 14.4866V11.4085ZM17.25 17.5648C16.8688 17.5648 16.5031 17.7269 16.2335 18.0155C15.964 18.3042 15.8125 18.6956 15.8125 19.1038V22.1819C15.8125 22.5901 15.964 22.9816 16.2335 23.2702C16.5031 23.5588 16.8688 23.721 17.25 23.721H20.125C20.5062 23.721 20.8719 23.5588 21.1415 23.2702C21.411 22.9816 21.5625 22.5901 21.5625 22.1819V19.1038C21.5625 18.6956 21.411 18.3042 21.1415 18.0155C20.8719 17.7269 20.5062 17.5648 20.125 17.5648H17.25Z" fill="#269E9C"/>
</svg>
