<svg width="49" height="49" viewBox="0 0 49 49" fill="none" xmlns="http://www.w3.org/2000/svg">
<path d="M24.5 4.59375C13.475 4.59375 4.59375 13.475 4.59375 24.5C4.59375 35.525 13.475 44.4062 24.5 44.4062C35.525 44.4062 44.4062 35.525 44.4062 24.5C44.4062 22.3593 44.1184 20.2232 43.3527 18.2311L40.866 20.6719C41.1722 21.8969 41.3453 23.1249 41.3453 24.5C41.3453 33.8437 33.8452 41.3438 24.5015 41.3438C15.1578 41.3438 7.65625 33.8437 7.65625 24.5C7.65625 15.1563 15.1563 7.65625 24.5 7.65625C29.0938 7.65625 33.2205 9.48609 36.1283 12.3939L38.2812 10.241C34.7594 6.71606 29.8594 4.59375 24.5 4.59375ZM41.774 11.149L24.5 28.4246L17.9447 21.8678L15.7428 24.0697L23.399 31.726L24.5 32.7779L25.601 31.726L43.976 13.351L41.774 11.149Z" fill="#269E9C"/>
</svg>
