<svg width="20" height="15" viewBox="0 0 20 15" fill="none" xmlns="http://www.w3.org/2000/svg">
<path d="M0 2.5C0 1.83696 0.263392 1.20107 0.732233 0.732233C1.20107 0.263392 1.83696 0 2.5 0H17.5C18.163 0 18.7989 0.263392 19.2678 0.732233C19.7366 1.20107 20 1.83696 20 2.5V12.5C20 13.163 19.7366 13.7989 19.2678 14.2678C18.7989 14.7366 18.163 15 17.5 15H2.5C1.83696 15 1.20107 14.7366 0.732233 14.2678C0.263392 13.7989 0 13.163 0 12.5V2.5ZM3.125 3.75C2.95924 3.75 2.80027 3.81585 2.68306 3.93306C2.56585 4.05027 2.5 4.20924 2.5 4.375V5.625C2.5 5.79076 2.56585 5.94973 2.68306 6.06694C2.80027 6.18415 2.95924 6.25 3.125 6.25H5.625C5.79076 6.25 5.94973 6.18415 6.06694 6.06694C6.18415 5.94973 6.25 5.79076 6.25 5.625V4.375C6.25 4.20924 6.18415 4.05027 6.06694 3.93306C5.94973 3.81585 5.79076 3.75 5.625 3.75H3.125ZM3.125 7.5C2.95924 7.5 2.80027 7.56585 2.68306 7.68306C2.56585 7.80027 2.5 7.95924 2.5 8.125C2.5 8.29076 2.56585 8.44973 2.68306 8.56694C2.80027 8.68415 2.95924 8.75 3.125 8.75H9.375C9.54076 8.75 9.69973 8.68415 9.81694 8.56694C9.93415 8.44973 10 8.29076 10 8.125C10 7.95924 9.93415 7.80027 9.81694 7.68306C9.69973 7.56585 9.54076 7.5 9.375 7.5H3.125ZM3.125 10C2.95924 10 2.80027 10.0658 2.68306 10.1831C2.56585 10.3003 2.5 10.4592 2.5 10.625C2.5 10.7908 2.56585 10.9497 2.68306 11.0669C2.80027 11.1842 2.95924 11.25 3.125 11.25H4.375C4.54076 11.25 4.69973 11.1842 4.81694 11.0669C4.93415 10.9497 5 10.7908 5 10.625C5 10.4592 4.93415 10.3003 4.81694 10.1831C4.69973 10.0658 4.54076 10 4.375 10H3.125ZM6.875 10C6.70924 10 6.55027 10.0658 6.43306 10.1831C6.31585 10.3003 6.25 10.4592 6.25 10.625C6.25 10.7908 6.31585 10.9497 6.43306 11.0669C6.55027 11.1842 6.70924 11.25 6.875 11.25H8.125C8.29076 11.25 8.44973 11.1842 8.56694 11.0669C8.68415 10.9497 8.75 10.7908 8.75 10.625C8.75 10.4592 8.68415 10.3003 8.56694 10.1831C8.44973 10.0658 8.29076 10 8.125 10H6.875ZM10.625 10C10.4592 10 10.3003 10.0658 10.1831 10.1831C10.0658 10.3003 10 10.4592 10 10.625C10 10.7908 10.0658 10.9497 10.1831 11.0669C10.3003 11.1842 10.4592 11.25 10.625 11.25H11.875C12.0408 11.25 12.1997 11.1842 12.3169 11.0669C12.4342 10.9497 12.5 10.7908 12.5 10.625C12.5 10.4592 12.4342 10.3003 12.3169 10.1831C12.1997 10.0658 12.0408 10 11.875 10H10.625ZM14.375 10C14.2092 10 14.0503 10.0658 13.9331 10.1831C13.8158 10.3003 13.75 10.4592 13.75 10.625C13.75 10.7908 13.8158 10.9497 13.9331 11.0669C14.0503 11.1842 14.2092 11.25 14.375 11.25H15.625C15.7908 11.25 15.9497 11.1842 16.0669 11.0669C16.1842 10.9497 16.25 10.7908 16.25 10.625C16.25 10.4592 16.1842 10.3003 16.0669 10.1831C15.9497 10.0658 15.7908 10 15.625 10H14.375Z" fill="white"/>
</svg>
