<svg width="28" height="28" viewBox="0 0 28 28" fill="none" xmlns="http://www.w3.org/2000/svg">
<g clip-path="url(#clip0_41_2221)">
<path d="M11.375 7.84355C14.287 4.9158 21.5688 10.038 11.375 16.625C1.18129 10.038 8.46303 4.91755 11.375 7.84355Z" fill="#269E9C"/>
<path d="M22.75 11.3751C22.7538 13.7951 21.9823 16.1526 20.5485 18.1021C20.6185 18.1546 20.685 18.2106 20.7498 18.2736L27.4873 25.0111C27.8156 25.3392 28.0002 25.7844 28.0004 26.2486C28.0005 26.7128 27.8163 27.1581 27.4881 27.4865C27.16 27.8148 26.7149 27.9994 26.2506 27.9996C25.7864 27.9997 25.3411 27.8155 25.0128 27.4874L18.2753 20.7499C18.2119 20.6873 18.1534 20.62 18.1003 20.5486H18.1038C16.0419 22.0613 13.5306 22.8351 10.9749 22.7452C8.41928 22.6552 5.96851 21.7068 4.01813 20.0529C2.06776 18.399 0.731574 16.1361 0.22523 13.6295C-0.281114 11.1229 0.071925 8.51886 1.22737 6.23757C2.38281 3.95627 4.27325 2.13086 6.59357 1.05594C8.9139 -0.0189719 11.5287 -0.280681 14.0161 0.313055C16.5034 0.906791 18.7181 2.32133 20.3028 4.32838C21.8874 6.33543 22.7495 8.81789 22.75 11.3751ZM11.375 21.0001C12.639 21.0001 13.8906 20.7511 15.0583 20.2674C16.2261 19.7837 17.2872 19.0748 18.1809 18.181C19.0747 17.2872 19.7837 16.2262 20.2674 15.0584C20.7511 13.8907 21 12.6391 21 11.3751C21 10.1111 20.7511 8.85954 20.2674 7.69178C19.7837 6.52402 19.0747 5.46297 18.1809 4.5692C17.2872 3.67544 16.2261 2.96647 15.0583 2.48276C13.8906 1.99906 12.639 1.7501 11.375 1.7501C8.82231 1.75011 6.37415 2.76416 4.56911 4.5692C2.76407 6.37424 1.75001 8.8224 1.75001 11.3751C1.75001 13.9278 2.76407 16.376 4.56911 18.181C6.37415 19.986 8.82231 21.0001 11.375 21.0001Z" fill="#269E9C"/>
</g>
<defs>
<clipPath id="clip0_41_2221">
<rect width="28" height="28" fill="white"/>
</clipPath>
</defs>
</svg>
